<?xml version="1.0" standalone="no"?>
<!DOCTYPE svg PUBLIC "-//W3C//DTD SVG 20010904//EN"
 "http://www.w3.org/TR/2001/REC-SVG-20010904/DTD/svg10.dtd">
<svg version="1.0" xmlns="http://www.w3.org/2000/svg"
 width="300.000000pt" height="300.000000pt" viewBox="0 0 300.000000 300.000000"
 preserveAspectRatio="xMidYMid meet">
<metadata>
Created by potrace 1.10, written by Peter Selinger 2001-2011
</metadata>
<g transform="translate(0.000000,300.000000) scale(0.100000,-0.100000)"
fill="#000000" stroke="none">
<path d="M0 2525 l0 -475 475 0 475 0 0 475 0 475 -475 0 -475 0 0 -475z"/>
<path d="M1020 2525 l0 -475 480 0 480 0 0 475 0 475 -480 0 -480 0 0 -475z"/>
<path d="M2050 2525 l0 -475 475 0 475 0 0 475 0 475 -475 0 -475 0 0 -475z"/>
<path d="M0 1500 l0 -480 475 0 475 0 0 480 0 480 -475 0 -475 0 0 -480z"/>
<path d="M1025 1968 c-3 -7 -4 -222 -3 -478 l3 -465 475 0 475 0 0 475 0 475
-473 3 c-373 2 -474 0 -477 -10z"/>
<path d="M0 475 l0 -475 475 0 475 0 0 475 0 475 -475 0 -475 0 0 -475z"/>
<path d="M2050 475 l0 -475 475 0 475 0 0 475 0 475 -475 0 -475 0 0 -475z"/>
</g>
</svg>
